# xmcd CD database file generated by Grip 2.7
# 
# Track frame offsets:
#       150
#       18070
#       37880
#       57913
#       76563
#       103433
#       125655
#       146290
#       163725
#       188788
#       209108
#       229555
# 
# Disc length: 3268 seconds
# 
# Revision: 3
# Processed by: cddbd v1.4b41PL1 Copyright (c) Steve Scherf et al.
# Submitted via: Grip 2.7
# 
DISCID=9a0cc20c
DTITLE=Sherman Robertson - I'm The Man
DYEAR=1900
DGENRE=
TTITLE0=I'm Your Man
TTITLE1=Somebody's Messin'
TTITLE2=Am I Losing You?
TTITLE3=Special Kind of Loving
TTITLE4=Make It Rain
TTITLE5=Out of Sight Out of Mind
TTITLE6=Linda Lou
TTITLE7=Home Of The Blues
TTITLE8=Our Good Things is Through
TTITLE9=Vacating The Blues
TTITLE10=Helping Hand
TTITLE11=Take A Message
EXTD=
EXTT0=
EXTT1=
EXTT2=
EXTT3=
EXTT4=
EXTT5=
EXTT6=
EXTT7=
EXTT8=
EXTT9=
EXTT10=
EXTT11=
PLAYORDER=
